<svg width="69" height="93" viewBox="0 0 69 93" fill="none" xmlns="http://www.w3.org/2000/svg">
<path d="M1.5 3.5H2.5V2.5H3.5V1.5H65.5V2.5H66.5V3.5H67.5V89.5H66.5V90.5H65.5V91.5H3.5V90.5H2.5V89.5H1.5V3.5Z" fill="white" stroke="white"/>
<path d="M66 93H3V92H66V93ZM2 91H3V92H1V90H2V91ZM68 92H66V91H67V90H68V92ZM1 90H0V3H1V90ZM69 90H68V3H69V90ZM3 2H2V3H1V1H3V2ZM68 3H67V2H66V1H68V3ZM66 1H3V0H66V1Z" fill="#C0C8D6"/>
<path d="M7 14H5V7H6V6.5H7V14ZM12 7H13V12H12V13H11V14H9V13H8V8H9V7H10V6H12V7ZM10 12H11V8H10V12Z" fill="#F06B3F"/>
<path d="M24 13H25V14H26V15H27V16H28V17H29V18H28V19H27V20H26V21H25V22H24V23H23V22H22V21H21V20H20V19H19V18H18V17H19V16H20V15H21V14H22V13H23V12H24V13Z" fill="#F06B3F"/>
<path d="M24 34H25V35H26V36H27V37H28V38H29V39H28V40H27V41H26V42H25V43H24V44H23V43H22V42H21V41H20V40H19V39H18V38H19V37H20V36H21V35H22V34H23V33H24V34Z" fill="#F06B3F"/>
<path d="M35 23H36V24H37V25H38V26H39V27H40V28H39V29H38V30H37V31H36V32H35V33H34V32H33V31H32V30H31V29H30V28H29V27H30V26H31V25H32V24H33V23H34V22H35V23Z" fill="#F06B3F"/>
<path d="M24 50H25V51H26V52H27V53H28V54H29V55H28V56H27V57H26V58H25V59H24V60H23V59H22V58H21V57H20V56H19V55H18V54H19V53H20V52H21V51H22V50H23V49H24V50Z" fill="#F06B3F"/>
<path d="M46 50H47V51H48V52H49V53H50V54H51V55H50V56H49V57H48V58H47V59H46V60H45V59H44V58H43V57H42V56H41V55H40V54H41V53H42V52H43V51H44V50H45V49H46V50Z" fill="#F06B3F"/>
<path d="M35 61H36V62H37V63H38V64H39V65H40V66H39V67H38V68H37V69H36V70H35V71H34V70H33V69H32V68H31V67H30V66H29V65H30V64H31V63H32V62H33V61H34V60H35V61Z" fill="#F06B3F"/>
<path d="M46 34H47V35H48V36H49V37H50V38H51V39H50V40H49V41H48V42H47V43H46V44H45V43H44V42H43V41H42V40H41V39H40V38H41V37H42V36H43V35H44V34H45V33H46V34Z" fill="#F06B3F"/>
<path d="M46 13H47V14H48V15H49V16H50V17H51V18H50V19H49V20H48V21H47V22H46V23H45V22H44V21H43V20H42V19H41V18H40V17H41V16H42V15H43V14H44V13H45V12H46V13Z" fill="#F06B3F"/>
<path d="M24 71H25V72H26V73H27V74H28V75H29V76H28V77H27V78H26V79H25V80H24V81H23V80H22V79H21V78H20V77H19V76H18V75H19V74H20V73H21V72H22V71H23V70H24V71Z" fill="#F06B3F"/>
<path d="M46 71H47V72H48V73H49V74H50V75H51V76H50V77H49V78H48V79H47V80H46V81H45V80H44V79H43V78H42V77H41V76H40V75H41V74H42V73H43V72H44V71H45V70H46V71Z" fill="#F06B3F"/>
<path d="M62 79H64L64 86H63V86.5H62V79ZM57 86H56V81H57V80H58V79H60V80H61V85H60V86H59V87H57V86ZM59 81H58V85H59V81Z" fill="#F06B3F"/>
<path d="M9 17H10V18H11V19H12V21H11V22H10V23H9V24H8V23H7V22H6V21H5V19H6V18H7V17H8V16H9V17Z" fill="#F06B3F"/>
<path d="M61 70H62V71H63V72H64V74H63V75H62V76H61V77H60V76H59V75H58V74H57V72H58V71H59V70H60V69H61V70Z" fill="#F06B3F"/>
</svg>
