<svg width="69" height="93" viewBox="0 0 69 93" fill="none" xmlns="http://www.w3.org/2000/svg">
<path d="M1.5 3.5H2.5V2.5H3.5V1.5H65.5V2.5H66.5V3.5H67.5V89.5H66.5V90.5H65.5V91.5H3.5V90.5H2.5V89.5H1.5V3.5Z" fill="white" stroke="white"/>
<path d="M66 93H3V92H66V93ZM2 91H3V92H1V90H2V91ZM68 92H66V91H67V90H68V92ZM1 90H0V3H1V90ZM69 90H68V3H69V90ZM3 2H2V3H1V1H3V2ZM68 3H67V2H66V1H68V3ZM66 1H3V0H66V1Z" fill="#C0C8D6"/>
<path d="M7 14H5V7H6V6.5H7V14ZM12 7H13V12H12V13H11V14H9V13H8V8H9V7H10V6H12V7ZM10 12H11V8H10V12Z" fill="#3C4368"/>
<path d="M24 13H25V14H26V15H27V16H28V17H29V19H28V20H25V19H24V20H25V21H26V22H21V21H22V20H23V19H22V20H19V19H18V17H19V16H20V15H21V14H22V13H23V12H24V13Z" fill="#3C4368"/>
<path d="M24 35H25V36H26V37H27V38H28V39H29V41H28V42H25V41H24V42H25V43H26V44H21V43H22V42H23V41H22V42H19V41H18V39H19V38H20V37H21V36H22V35H23V34H24V35Z" fill="#3C4368"/>
<path d="M35 24H36V25H37V26H38V27H39V28H40V30H39V31H36V30H35V31H36V32H37V33H32V32H33V31H34V30H33V31H30V30H29V28H30V27H31V26H32V25H33V24H34V23H35V24Z" fill="#3C4368"/>
<path d="M23 58H22V57H21V56H20V55H19V54H18V52H19V51H22V52H23V51H22V50H21V49H26V50H25V51H24V52H25V51H28V52H29V54H28V55H27V56H26V57H25V58H24V59H23V58Z" fill="#3C4368"/>
<path d="M45 58H44V57H43V56H42V55H41V54H40V52H41V51H44V52H45V51H44V50H43V49H48V50H47V51H46V52H47V51H50V52H51V54H50V55H49V56H48V57H47V58H46V59H45V58Z" fill="#3C4368"/>
<path d="M34 70H33V69H32V68H31V67H30V66H29V64H30V63H33V64H34V63H33V62H32V61H37V62H36V63H35V64H36V63H39V64H40V66H39V67H38V68H37V69H36V70H35V71H34V70Z" fill="#3C4368"/>
<path d="M46 35H47V36H48V37H49V38H50V39H51V41H50V42H47V41H46V42H47V43H48V44H43V43H44V42H45V41H44V42H41V41H40V39H41V38H42V37H43V36H44V35H45V34H46V35Z" fill="#3C4368"/>
<path d="M46 13H47V14H48V15H49V16H50V17H51V19H50V20H47V19H46V20H47V21H48V22H43V21H44V20H45V19H44V20H41V19H40V17H41V16H42V15H43V14H44V13H45V12H46V13Z" fill="#3C4368"/>
<path d="M23 80H22V79H21V78H20V77H19V76H18V74H19V73H22V74H23V73H22V72H21V71H26V72H25V73H24V74H25V73H28V74H29V76H28V77H27V78H26V79H25V80H24V81H23V80Z" fill="#3C4368"/>
<path d="M45 80H44V79H43V78H42V77H41V76H40V74H41V73H44V74H45V73H44V72H43V71H48V72H47V73H46V74H47V73H50V74H51V76H50V77H49V78H48V79H47V80H46V81H45V80Z" fill="#3C4368"/>
<path d="M62 79H64V86H63V86.5H62V79ZM57 86H56V81H57V80H58V79H60V80H61V85H60V86H59V87H57V86ZM59 81H58V85H59V81Z" fill="#3C4368"/>
<path d="M9 18H10V19H11V20H12V22H11V23H10V22H9V24H8V22H7V23H6V22H5V20H6V19H7V18H8V16H9V18Z" fill="#3C4368"/>
<path d="M60 75H59V74H58V73H57V71H58V70H59V71H60V69H61V71H62V70H63V71H64L64 73H63V74H62V75H61V77H60V75Z" fill="#3C4368"/>
</svg>
