<svg width="69" height="93" viewBox="0 0 69 93" fill="none" xmlns="http://www.w3.org/2000/svg">
<path d="M66 93H3V92H66V93ZM2 91H3V92H1V90H2V91ZM68 92H66V91H67V90H68V92ZM1 90H0V3H1V90ZM69 90H68V3H69V90ZM3 2H2V3H1V1H3V2ZM68 3H67V2H66V1H68V3ZM66 1H3V0H66V1Z" fill="#C0C8D6"/>
<path d="M1.5 3.5H2.5V2.5H3.5V1.5H65.5V2.5H66.5V3.5H67.5V89.5H66.5V90.5H65.5V91.5H3.5V90.5H2.5V89.5H1.5V3.5Z" fill="white" stroke="white"/>
<path d="M11 7H12V9H11V10H10V11H9V12H12V14H5V12H6V11H7V10H8V9H9V8H8V7H7V8H6V9H5V7H6V6H11V7Z" fill="#3C4368"/>
<path d="M35 13H36V14H37V15H38V16H39V17H40V19H39V20H36V19H35V20H36V21H37V22H32V21H33V20H34V19H33V20H30V19H29V17H30V16H31V15H32V14H33V13H34V12H35V13Z" fill="#3C4368"/>
<path d="M34 80H33V79H32V78H31V77H30V76H29V74H30V73H33V74H34V73H33V72H32V71H37V72H36V73H35V74H36V73H39V74H40V76H39V77H38V78H37V79H36V80H35V81H34V80Z" fill="#3C4368"/>
<path d="M58 86H57V84H58V83H59V82H60V81H57V79H64V81H63V82H62V83H61V84H60V85H61V86H62V85H63V84H64V86H63V87H58V86Z" fill="#3C4368"/>
<path d="M9 18H10V19H11V20H12V22H11V23H10V22H9V24H8V22H7V23H6V22H5V20H6V19H7V18H8V16H9V18Z" fill="#3C4368"/>
<path d="M60 75H59V74H58V73H57V71H58V70H59V71H60V69H61V71H62V70H63V71H64V73H63V74H62V75H61V77H60V75Z" fill="#3C4368"/>
</svg>
