<svg width="69" height="93" viewBox="0 0 69 93" fill="none" xmlns="http://www.w3.org/2000/svg">
<path d="M66 93H3V92H66V93ZM2 91H3V92H1V90H2V91ZM68 92H66V91H67V90H68V92ZM1 90H0V3H1V90ZM69 90H68V3H69V90ZM3 2H2V3H1V1H3V2ZM68 3H67V2H66V1H68V3ZM66 1H3V0H66V1Z" fill="#C0C8D6"/>
<path d="M1.5 3.5H2.5V2.5H3.5V1.5H65.5V2.5H66.5V3.5H67.5V89.5H66.5V90.5H65.5V91.5H3.5V90.5H2.5V89.5H1.5V3.5Z" fill="white" stroke="white"/>
<path d="M11 7H12V9H11V10H10V11H9V12H12V14H5V12H6V11H7V10H8V9H9V8H8V7H7V8H6V9H5V7H6V6H11V7Z" fill="#F06B3F"/>
<path d="M35 13H36V14H37V15H38V16H39V17H40V18H39V19H38V20H37V21H36V22H35V23H34V22H33V21H32V20H31V19H30V18H29V17H30V16H31V15H32V14H33V13H34V12H35V13Z" fill="#F06B3F"/>
<path d="M35 71H36V72H37V73H38V74H39V75H40V76H39V77H38V78H37V79H36V80H35V81H34V80H33V79H32V78H31V77H30V76H29V75H30V74H31V73H32V72H33V71H34V70H35V71Z" fill="#F06B3F"/>
<path d="M58 86H57V84H58V83H59V82H60V81H57V79H64V81H63V82H62V83H61V84H60V85H61V86H62V85H63V84H64V86H63V87H58V86Z" fill="#F06B3F"/>
<path d="M9 18H10V19H11V20H12V22H11V23H10V24H9V25H8V24H7V23H6V22H5V20H6V19H7V18H8V17H9V18Z" fill="#F06B3F"/>
<path d="M61 70H62V71H63V72H64V74H63V75H62V76H61V77H60V76H59V75H58V74H57V72H58V71H59V70H60V69H61V70Z" fill="#F06B3F"/>
</svg>
