<svg width="69" height="93" viewBox="0 0 69 93" fill="none" xmlns="http://www.w3.org/2000/svg">
<path d="M66 93H3V92H66V93ZM2 91H3V92H1V90H2V91ZM68 92H66V91H67V90H68V92ZM1 90H0V3H1V90ZM69 90H68V3H69V90ZM3 2H2V3H1V1H3V2ZM68 3H67V2H66V1H68V3ZM66 1H3V0H66V1Z" fill="#C0C8D6"/>
<path d="M1.5 3.5H2.5V2.5H3.5V1.5H65.5V2.5H66.5V3.5H67.5V89.5H66.5V90.5H65.5V91.5H3.5V90.5H2.5V89.5H1.5V3.5Z" fill="white" stroke="white"/>
<path d="M10 7H11V9H10V10H9V11H8V12H11V14H4V12H5V11H6V10H7V9H8V8H7V7H6V8H5V9H4V7H5V6H10V7Z" fill="#F03464"/>
<path d="M32 13H33V14H34V13H35V12H38V13H39V17H38V18H37V19H36V20H35V21H34V21.5H33V21H32V20H31V19H30V18H29V17H28V13H29V12H32V13Z" fill="#F03464"/>
<path d="M35 80H34V79H33V80H32V81H29V80H28V76H29V75H30V74H31V73H32V72H33V71.5H34V72H35V73H36V74H37V75H38V76H39V80H38V81H35V80Z" fill="#F03464"/>
<path d="M57 86H56V84H57V83H58V82H59V81H56V79H63V81H62V82H61V83H60V84H59V85H60V86H61V85H62V84H63V86H62V87H57V86Z" fill="#F03464"/>
<path d="M7 17H8V16H10V17H11V19H10V21H9V23H8V24H7V23H6V21H5V19H4V17H5V16H7V17Z" fill="#F03464"/>
<path d="M60 76H59V77H57V76H56V74H57V72H58V70H59V69H60V70H61V72H62V74H63V76H62V77H60V76Z" fill="#F03464"/>
</svg>
