<svg width="69" height="93" viewBox="0 0 69 93" fill="none" xmlns="http://www.w3.org/2000/svg">
<path d="M66 93H3V92H66V93ZM2 91H3V92H1V90H2V91ZM68 92H66V91H67V90H68V92ZM1 90H0V3H1V90ZM69 90H68V3H69V90ZM3 2H2V3H1V1H3V2ZM68 3H67V2H66V1H68V3ZM66 1H3V0H66V1Z" fill="#C0C8D6"/>
<path d="M1.5 3.5H2.5V2.5H3.5V1.5H65.5V2.5H66.5V3.5H67.5V89.5H66.5V90.5H65.5V91.5H3.5V90.5H2.5V89.5H1.5V3.5Z" fill="white" stroke="white"/>
<path d="M11 7H12V9H11V10H12V13H11V14H6V13H5V11H7V12H10V11H8V10H7.5V9H10V8H9V7H7V8H6V8.5H5V7H6V6H11V7Z" fill="#235955"/>
<path d="M36 13H37V16H36V17H37V16H39V17H40V20H39V21H36V20H35V22H37.5V23H31.5V22H34V20H33V21H30V20H29V17H30V16H32V17H33V16H32V13H33V12H36V13Z" fill="#235955"/>
<path d="M36 42H37V45H36V46H37V45H39V46H40V49H39V50H36V49H35V51H37.5V52H31.5V51H34V49H33V50H30V49H29V46H30V45H32V46H33V45H32V42H33V41H36V42Z" fill="#235955"/>
<path d="M33 80H32V77H33V76H32V77H30V76H29V73H30V72H33V73H34V71H31.5V70H37.5V71H35V73H36V72H39V73H40V76H39V77H37V76H36V77H37V80H36V81H33V80Z" fill="#235955"/>
<path d="M58 86H57V84H58V83H57V80H58V79H63V80H64V82H62V81H59V82H61V83H61.5V84H59V85H60V86H62V85H63V84.5H64V86H63V87H58V86Z" fill="#235955"/>
<path d="M10 19H9V20H10V19H12V22H9V23H10.5V24H6.5V23H8V22H5V19H7V20H8V19H7V16H10V19Z" fill="#235955"/>
<path d="M59 74H60V73H59V74H57V71H60V70H58.5V69H62.5V70H61V71H64V74H62V73H61V74H62V77H59V74Z" fill="#235955"/>
</svg>
