<svg width="69" height="93" viewBox="0 0 69 93" fill="none" xmlns="http://www.w3.org/2000/svg">
<path d="M66 93H3V92H66V93ZM2 91H3V92H1V90H2V91ZM68 92H66V91H67V90H68V92ZM1 90H0V3H1V90ZM69 90H68V3H69V90ZM3 2H2V3H1V1H3V2ZM68 3H67V2H66V1H68V3ZM66 1H3V0H66V1Z" fill="#C0C8D6"/>
<path d="M1.5 3.5H2.5V2.5H3.5V1.5H65.5V2.5H66.5V3.5H67.5V89.5H66.5V90.5H65.5V91.5H3.5V90.5H2.5V89.5H1.5V3.5Z" fill="white" stroke="white"/>
<path d="M11 7H12V9H11V10H12V13H11V14H6V13H5V11H7V12H10V11H8V10H7.5V9H10V8H9V7H7V8H6V8.5H5V7H6V6H11V7Z" fill="#F06B3F"/>
<path d="M35 13H36V14H37V15H38V16H39V17H40V18H39V19H38V20H37V21H36V22H35V23H34V22H33V21H32V20H31V19H30V18H29V17H30V16H31V15H32V14H33V13H34V12H35V13Z" fill="#F06B3F"/>
<path d="M35 42H36V43H37V44H38V45H39V46H40V47H39V48H38V49H37V50H36V51H35V52H34V51H33V50H32V49H31V48H30V47H29V46H30V45H31V44H32V43H33V42H34V41H35V42Z" fill="#F06B3F"/>
<path d="M35 71H36V72H37V73H38V74H39V75H40V76H39V77H38V78H37V79H36V80H35V81H34V80H33V79H32V78H31V77H30V76H29V75H30V74H31V73H32V72H33V71H34V70H35V71Z" fill="#F06B3F"/>
<path d="M58 86H57V84H58V83H57V80H58V79H63V80H64V82H62V81H59V82H61V83H61.5V84H59V85H60V86H62V85H63V84.5H64V86H63V87H58V86Z" fill="#F06B3F"/>
<path d="M9 17H10V18H11V19H12V21H11V22H10V23H9V24H8V23H7V22H6V21H5V19H6V18H7V17H8V16H9V17Z" fill="#F06B3F"/>
<path d="M61 70H62V71H63V72H64V74H63V75H62V76H61V77H60V76H59V75H58V74H57V72H58V71H59V70H60V69H61V70Z" fill="#F06B3F"/>
</svg>
