<svg width="69" height="93" viewBox="0 0 69 93" fill="none" xmlns="http://www.w3.org/2000/svg">
<path d="M66 93H3V92H66V93ZM2 91H3V92H1V90H2V91ZM68 92H66V91H67V90H68V92ZM1 90H0V3H1V90ZM69 90H68V3H69V90ZM3 2H2V3H1V1H3V2ZM68 3H67V2H66V1H68V3ZM66 1H3V0H66V1Z" fill="#C0C8D6"/>
<path d="M1.5 3.5H2.5V2.5H3.5V1.5H65.5V2.5H66.5V3.5H67.5V89.5H66.5V90.5H65.5V91.5H3.5V90.5H2.5V89.5H1.5V3.5Z" fill="white" stroke="white"/>
<path d="M11 7H12V9H11V10H12V13H11V14H6V13H5V11H7V12H10V11H8V10H7.5V9H10V8H9V7H7V8H6V8.5H5V7H6V6H11V7Z" fill="#F03464"/>
<path d="M33 13H34V14H35V13H36V12H39V13H40V17H39V18H38V19H37V20H36V21H35V21.5H34V21H33V20H32V19H31V18H30V17H29V13H30V12H33V13Z" fill="#F03464"/>
<path d="M33 43H34V44H35V43H36V42H39V43H40V47H39V48H38V49H37V50H36V51H35V51.5H34V51H33V50H32V49H31V48H30V47H29V43H30V42H33V43Z" fill="#F03464"/>
<path d="M36 80.5H35V79.5H34V80.5H33V81.5H30V80.5H29V76.5H30V75.5H31V74.5H32V73.5H33V72.5H34V72H35V72.5H36V73.5H37V74.5H38V75.5H39V76.5H40V80.5H39V81.5H36V80.5Z" fill="#F03464"/>
<path d="M58 86H57V84H58V83H57V80H58V79H63V80H64V82H62V81H59V82H61V83H61.5V84H59V85H60V86H62V85H63V84.5H64V86H63V87H58V86Z" fill="#F03464"/>
<path d="M8 17H9V16H11V17H12V19H11V21H10V23H9V24H8V23H7V21H6V19H5V17H6V16H8V17Z" fill="#F03464"/>
<path d="M61 76H60V77H58V76H57V74H58V72H59V70H60V69H61V70H62V72H63V74H64V76H63V77H61V76Z" fill="#F03464"/>
</svg>
