<svg width="69" height="93" viewBox="0 0 69 93" fill="none" xmlns="http://www.w3.org/2000/svg">
<path d="M66 93H3V92H66V93ZM2 91H3V92H1V90H2V91ZM68 92H66V91H67V90H68V92ZM1 90H0V3H1V90ZM69 90H68V3H69V90ZM3 2H2V3H1V1H3V2ZM68 3H67V2H66V1H68V3ZM66 1H3V0H66V1Z" fill="#C0C8D6"/>
<path d="M1.5 3.5H2.5V2.5H3.5V1.5H65.5V2.5H66.5V3.5H67.5V89.5H66.5V90.5H65.5V91.5H3.5V90.5H2.5V89.5H1.5V3.5Z" fill="white" stroke="white"/>
<path d="M11 11H12V13H11V14H9V13H5V10H6V8H7V6H11V11ZM8 10H7V11H9V8H8V10Z" fill="#235955"/>
<path d="M25 13H26V16H25V17H26V16H28V17H29V20H28V21H25V20H24V22H26.5V23H20.5V22H23V20H22V21H19V20H18V17H19V16H21V17H22V16H21V13H22V12H25V13Z" fill="#235955"/>
<path d="M47 13H48V16H47V17H48V16H50V17H51V20H50V21H47V20H46V22H48.5V23H42.5V22H45V20H44V21H41V20H40V17H41V16H43V17H44V16H43V13H44V12H47V13Z" fill="#235955"/>
<path d="M22 80H21V77H22V76H21V77H19V76H18V73H19V72H22V73H23V71H20.5V70H26.5V71H24V73H25V72H28V73H29V76H28V77H26V76H25V77H26V80H25V81H22V80Z" fill="#235955"/>
<path d="M44 80H43V77H44V76H43V77H41V76H40V73H41V72H44V73H45V71H42.5V70H48.5V71H46V73H47V72H50V73H51V76H50V77H48V76H47V77H48V80H47V81H44V80Z" fill="#235955"/>
<path d="M58 82H57V80H58V79H60V80H64V83H63V85H62V87H58V82ZM61 83H62V82H60V85H61V83Z" fill="#235955"/>
<path d="M10 19H9V20H10V19H12V22H9V23H10.5V24H6.5V23H8V22H5V19H7V20H8V19H7V16H10V19Z" fill="#235955"/>
<path d="M59 74H60V73H59V74H57V71H60V70H58.5V69H62.5V70H61V71H64V74H62V73H61V74H62V77H59V74Z" fill="#235955"/>
</svg>
