<svg width="69" height="93" viewBox="0 0 69 93" fill="none" xmlns="http://www.w3.org/2000/svg">
<path d="M1.5 3.5H2.5V2.5H3.5V1.5H65.5V2.5H66.5V3.5H67.5V89.5H66.5V90.5H65.5V91.5H3.5V90.5H2.5V89.5H1.5V3.5Z" fill="white" stroke="white"/>
<path d="M66 93H3V92H66V93ZM2 91H3V92H1V90H2V91ZM68 92H66V91H67V90H68V92ZM1 90H0V3H1V90ZM69 90H68V3H69V90ZM3 2H2V3H1V1H3V2ZM68 3H67V2H66V1H68V3ZM66 1H3V0H66V1Z" fill="#C0C8D6"/>
<path d="M12 8H8V9H11V10H12V13H11V14H6V13H5V11H7V12H10V11H9V10H5V8H6V6H12V8Z" fill="#F06B3F"/>
<path d="M24 13H25V14H26V15H27V16H28V17H29V18H28V19H27V20H26V21H25V22H24V23H23V22H22V21H21V20H20V19H19V18H18V17H19V16H20V15H21V14H22V13H23V12H24V13Z" fill="#F06B3F"/>
<path d="M35 42H36V43H37V44H38V45H39V46H40V47H39V48H38V49H37V50H36V51H35V52H34V51H33V50H32V49H31V48H30V47H29V46H30V45H31V44H32V43H33V42H34V41H35V42Z" fill="#F06B3F"/>
<path d="M46 13H47V14H48V15H49V16H50V17H51V18H50V19H49V20H48V21H47V22H46V23H45V22H44V21H43V20H42V19H41V18H40V17H41V16H42V15H43V14H44V13H45V12H46V13Z" fill="#F06B3F"/>
<path d="M24 71H25V72H26V73H27V74H28V75H29V76H28V77H27V78H26V79H25V80H24V81H23V80H22V79H21V78H20V77H19V76H18V75H19V74H20V73H21V72H22V71H23V70H24V71Z" fill="#F06B3F"/>
<path d="M46 71H47V72H48V73H49V74H50V75H51V76H50V77H49V78H48V79H47V80H46V81H45V80H44V79H43V78H42V77H41V76H40V75H41V74H42V73H43V72H44V71H45V70H46V71Z" fill="#F06B3F"/>
<path d="M57 85H61V84H58V83H57V80H58V79H63V80H64V82H62V81H59V82H60V83H64V85H63V87H57V85Z" fill="#F06B3F"/>
<path d="M9 17H10V18H11V19H12V21H11V22H10V23H9V24H8V23H7V22H6V21H5V19H6V18H7V17H8V16H9V17Z" fill="#F06B3F"/>
<path d="M61 70H62V71H63V72H64V74H63V75H62V76H61V77H60V76H59V75H58V74H57V72H58V71H59V70H60V69H61V70Z" fill="#F06B3F"/>
</svg>
