<svg width="69" height="93" viewBox="0 0 69 93" fill="none" xmlns="http://www.w3.org/2000/svg">
<path d="M66 93H3V92H66V93ZM2 91H3V92H1V90H2V91ZM68 92H66V91H67V90H68V92ZM1 90H0V3H1V90ZM69 90H68V3H69V90ZM3 2H2V3H1V1H3V2ZM68 3H67V2H66V1H68V3ZM66 1H3V0H66V1Z" fill="#C0C8D6"/>
<path d="M1.5 3.5H2.5V2.5H3.5V1.5H65.5V2.5H66.5V3.5H67.5V89.5H66.5V90.5H65.5V91.5H3.5V90.5H2.5V89.5H1.5V3.5Z" fill="white" stroke="white"/>
<path d="M10.5 7H10V8H9V9H11V10H12V13H11V14H6V13H5V9H6V8H7V7H8V6H10.5V7ZM8 11H7V12H8V13H10V12H11V11H10V10H8V11Z" fill="#3C4368"/>
<path d="M24 13H25V14H26V15H27V16H28V17H29V19H28V20H25V19H24V20H25V21H26V22H21V21H22V20H23V19H22V20H19V19H18V17H19V16H20V15H21V14H22V13H23V12H24V13Z" fill="#3C4368"/>
<path d="M24 42H25V43H26V44H27V45H28V46H29V48H28V49H25V48H24V49H25V50H26V51H21V50H22V49H23V48H22V49H19V48H18V46H19V45H20V44H21V43H22V42H23V41H24V42Z" fill="#3C4368"/>
<path d="M46 42H47V43H48V44H49V45H50V46H51V48H50V49H47V48H46V49H47V50H48V51H43V50H44V49H45V48H44V49H41V48H40V46H41V45H42V44H43V43H44V42H45V41H46V42Z" fill="#3C4368"/>
<path d="M46 13H47V14H48V15H49V16H50V17H51V19H50V20H47V19H46V20H47V21H48V22H43V21H44V20H45V19H44V20H41V19H40V17H41V16H42V15H43V14H44V13H45V12H46V13Z" fill="#3C4368"/>
<path d="M23 79H22V78H21V77H20V76H19V75H18V73H19V72H22V73H23V72H22V71H21V70H26V71H25V72H24V73H25V72H28V73H29V75H28V76H27V77H26V78H25V79H24V80H23V79Z" fill="#3C4368"/>
<path d="M45 79H44V78H43V77H42V76H41V75H40V73H41V72H44V73H45V72H44V71H43V70H48V71H47V72H46V73H47V72H50V73H51V75H50V76H49V77H48V78H47V79H46V80H45V79Z" fill="#3C4368"/>
<path d="M58.5 86H59V85H60V84H58V83H57V80H58V79H63V80H64V84H63V85H62V86H61V87H58.5V86ZM61 82H62V81H61V80H59V81H58V82H59V83H61V82Z" fill="#3C4368"/>
<path d="M9 18H10V19H11V20H12V22H11V23H10V22H9V24H8V22H7V23H6V22H5V20H6V19H7V18H8V16H9V18Z" fill="#3C4368"/>
<path d="M60 75H59V74H58V73H57V71H58V70H59V71H60V69H61V71H62V70H63V71H64V73H63V74H62V75H61V77H60V75Z" fill="#3C4368"/>
</svg>
