<svg width="69" height="93" viewBox="0 0 69 93" fill="none" xmlns="http://www.w3.org/2000/svg">
<path d="M66 93H3V92H66V93ZM2 91H3V92H1V90H2V91ZM68 92H66V91H67V90H68V92ZM1 90H0V3H1V90ZM69 90H68V3H69V90ZM3 2H2V3H1V1H3V2ZM68 3H67V2H66V1H68V3ZM66 1H3V0H66V1Z" fill="#C0C8D6"/>
<path d="M1.5 3.5H2.5V2.5H3.5V1.5H65.5V2.5H66.5V3.5H67.5V89.5H66.5V90.5H65.5V91.5H3.5V90.5H2.5V89.5H1.5V3.5Z" fill="white" stroke="white"/>
<path d="M12 9H11V10H10V14H7V11H8V10H9V9H10V8H5V6H12V9Z" fill="#3C4368"/>
<path d="M24 13H25V14H26V15H27V16H28V17H29V19H28V20H25V19H24V20H25V21H26V22H21V21H22V20H23V19H22V20H19V19H18V17H19V16H20V15H21V14H22V13H23V12H24V13Z" fill="#3C4368"/>
<path d="M35 27H36V28H37V29H38V30H39V31H40V33H39V34H36V33H35V34H36V35H37V36H32V35H33V34H34V33H33V34H30V33H29V31H30V30H31V29H32V28H33V27H34V26H35V27Z" fill="#3C4368"/>
<path d="M24 43H25V44H26V45H27V46H28V47H29V49H28V50H25V49H24V50H25V51H26V52H21V51H22V50H23V49H22V50H19V49H18V47H19V46H20V45H21V44H22V43H23V42H24V43Z" fill="#3C4368"/>
<path d="M46 43H47V44H48V45H49V46H50V47H51V49H50V50H47V49H46V50H47V51H48V52H43V51H44V50H45V49H44V50H41V49H40V47H41V46H42V45H43V44H44V43H45V42H46V43Z" fill="#3C4368"/>
<path d="M46 13H47V14H48V15H49V16H50V17H51V19H50V20H47V19H46V20H47V21H48V22H43V21H44V20H45V19H44V20H41V19H40V17H41V16H42V15H43V14H44V13H45V12H46V13Z" fill="#3C4368"/>
<path d="M23 80H22V79H21V78H20V77H19V76H18V74H19V73H22V74H23V73H22V72H21V71H26V72H25V73H24V74H25V73H28V74H29V76H28V77H27V78H26V79H25V80H24V81H23V80Z" fill="#3C4368"/>
<path d="M45 80H44V79H43V78H42V77H41V76H40V74H41V73H44V74H45V73H44V72H43V71H48V72H47V73H46V74H47V73H50V74H51V76H50V77H49V78H48V79H47V80H46V81H45V80Z" fill="#3C4368"/>
<path d="M57 84H58V83H59V79H62V82H61V83H60V84H59V85H64V87H57V84Z" fill="#3C4368"/>
<path d="M9 18H10V19H11V20H12V22H11V23H10V22H9V24H8V22H7V23H6V22H5V20H6V19H7V18H8V16H9V18Z" fill="#3C4368"/>
<path d="M60 75H59V74H58V73H57V71H58V70H59V71H60V69H61V71H62V70H63V71H64V73H63V74H62V75H61V77H60V75Z" fill="#3C4368"/>
</svg>
