<svg width="69" height="93" viewBox="0 0 69 93" fill="none" xmlns="http://www.w3.org/2000/svg">
<path d="M66 93H3V92H66V93ZM2 91H3V92H1V90H2V91ZM68 92H66V91H67V90H68V92ZM1 90H0V3H1V90ZM69 90H68V3H69V90ZM3 2H2V3H1V1H3V2ZM68 3H67V2H66V1H68V3ZM66 1H3V0H66V1Z" fill="#C0C8D6"/>
<path d="M1.5 3.5H2.5V2.5H3.5V1.5H65.5V2.5H66.5V3.5H67.5V89.5H66.5V90.5H65.5V91.5H3.5V90.5H2.5V89.5H1.5V3.5Z" fill="white" stroke="white"/>
<path d="M12 9H11V10H10V14H7V11H8V10H9V9H10V8H5V6H12V9Z" fill="#F03464"/>
<path d="M22 13H23V14H24V13H25V12H28V13H29V17H28V18H27V19H26V20H25V21H24V21.5H23V21H22V20H21V19H20V18H19V17H18V13H19V12H22V13Z" fill="#F03464"/>
<path d="M22 43H23V44H24V43H25V42H28V43H29V47H28V48H27V49H26V50H25V51H24V51.5H23V51H22V50H21V49H20V48H19V47H18V43H19V42H22V43Z" fill="#F03464"/>
<path d="M33 27H34V28H35V27H36V26H39V27H40V31H39V32H38V33H37V34H36V35H35V35.5H34V35H33V34H32V33H31V32H30V31H29V27H30V26H33V27Z" fill="#F03464"/>
<path d="M44 43H45V44H46V43H47V42H50V43H51V47H50V48H49V49H48V50H47V51H46V51.5H45V51H44V50H43V49H42V48H41V47H40V43H41V42H44V43Z" fill="#F03464"/>
<path d="M44 13H45V14H46V13H47V12H50V13H51V17H50V18H49V19H48V20H47V21H46V21.5H45V21H44V20H43V19H42V18H41V17H40V13H41V12H44V13Z" fill="#F03464"/>
<path d="M25 80.5H24V79.5H23V80.5H22V81.5H19V80.5H18V76.5H19V75.5H20V74.5H21V73.5H22V72.5H23V72H24V72.5H25V73.5H26V74.5H27V75.5H28V76.5H29V80.5H28V81.5H25V80.5Z" fill="#F03464"/>
<path d="M47 80.5H46V79.5H45V80.5H44V81.5H41V80.5H40V76.5H41V75.5H42V74.5H43V73.5H44V72.5H45V72H46V72.5H47V73.5H48V74.5H49V75.5H50V76.5H51V80.5H50V81.5H47V80.5Z" fill="#F03464"/>
<path d="M57 84H58V83H59V79H62V82H61V83H60V84H59V85H64V87H57V84Z" fill="#F03464"/>
<path d="M8 17H9V16H11V17H12V19H11V21H10V23H9V24H8V23H7V21H6V19H5V17H6V16H8V17Z" fill="#F03464"/>
<path d="M61 76H60V77H58V76H57V74H58V72H59V70H60V69H61V70H62V72H63V74H64V76H63V77H61V76Z" fill="#F03464"/>
</svg>
