<svg width="69" height="93" viewBox="0 0 69 93" fill="none" xmlns="http://www.w3.org/2000/svg">
<path d="M1.5 3.5H2.5V2.5H3.5V1.5H65.5V2.5H66.5V3.5H67.5V89.5H66.5V90.5H65.5V91.5H3.5V90.5H2.5V89.5H1.5V3.5Z" fill="white" stroke="white"/>
<path d="M66 93H3V92H66V93ZM2 91H3V92H1V90H2V91ZM68 92H66V91H67V90H68V92ZM1 90H0V3H1V90ZM69 90H68V3H69V90ZM3 2H2V3H1V1H3V2ZM68 3H67V2H66V1H68V3ZM66 1H3V0H66V1Z" fill="#C0C8D6"/>
<path d="M11 7H12V9H11V10H12V13H11V14H6V13H5V11H6V10H7V9H6V7H7V6H11V7ZM8 13H10V11H8V13ZM8 9H9V8H10V7H8V9Z" fill="#F06B3F"/>
<path d="M24 13H25V14H26V15H27V16H28V17H29V18H28V19H27V20H26V21H25V22H24V23H23V22H22V21H21V20H20V19H19V18H18V17H19V16H20V15H21V14H22V13H23V12H24V13Z" fill="#F06B3F"/>
<path d="M24 42H25V43H26V44H27V45H28V46H29V47H28V48H27V49H26V50H25V51H24V52H23V51H22V50H21V49H20V48H19V47H18V46H19V45H20V44H21V43H22V42H23V41H24V42Z" fill="#F06B3F"/>
<path d="M35 26H36V27H37V28H38V29H39V30H40V31H39V32H38V33H37V34H36V35H35V36H34V35H33V34H32V33H31V32H30V31H29V30H30V29H31V28H32V27H33V26H34V25H35V26Z" fill="#F06B3F"/>
<path d="M35 57H36V58H37V59H38V60H39V61H40V62H39V63H38V64H37V65H36V66H35V67H34V66H33V65H32V64H31V63H30V62H29V61H30V60H31V59H32V58H33V57H34V56H35V57Z" fill="#F06B3F"/>
<path d="M46 42H47V43H48V44H49V45H50V46H51V47H50V48H49V49H48V50H47V51H46V52H45V51H44V50H43V49H42V48H41V47H40V46H41V45H42V44H43V43H44V42H45V41H46V42Z" fill="#F06B3F"/>
<path d="M46 13H47V14H48V15H49V16H50V17H51V18H50V19H49V20H48V21H47V22H46V23H45V22H44V21H43V20H42V19H41V18H40V17H41V16H42V15H43V14H44V13H45V12H46V13Z" fill="#F06B3F"/>
<path d="M24 71H25V72H26V73H27V74H28V75H29V76H28V77H27V78H26V79H25V80H24V81H23V80H22V79H21V78H20V77H19V76H18V75H19V74H20V73H21V72H22V71H23V70H24V71Z" fill="#F06B3F"/>
<path d="M46 71H47V72H48V73H49V74H50V75H51V76H50V77H49V78H48V79H47V80H46V81H45V80H44V79H43V78H42V77H41V76H40V75H41V74H42V73H43V72H44V71H45V70H46V71Z" fill="#F06B3F"/>
<path d="M58 86H57V84H58V83H57V80H58V79H63V80H64V82H63V83H62V84H63V86H62V87H58V86ZM61 80H59V82H61V80ZM61 84H60V85H59V86H61V84Z" fill="#F06B3F"/>
<path d="M9 17H10V18H11V19H12V21H11V22H10V23H9V24H8V23H7V22H6V21H5V19H6V18H7V17H8V16H9V17Z" fill="#F06B3F"/>
<path d="M61 70H62V71H63V72H64V74H63V75H62V76H61V77H60V76H59V75H58V74H57V72H58V71H59V70H60V69H61V70Z" fill="#F06B3F"/>
</svg>
