<svg width="69" height="93" viewBox="0 0 69 93" fill="none" xmlns="http://www.w3.org/2000/svg">
<path d="M1.5 3.5H2.5V2.5H3.5V1.5H65.5V2.5H66.5V3.5H67.5V89.5H66.5V90.5H65.5V91.5H3.5V90.5H2.5V89.5H1.5V3.5Z" fill="white" stroke="white"/>
<path d="M66 93H3V92H66V93ZM2 91H3V92H1V90H2V91ZM68 92H66V91H67V90H68V92ZM1 90H0V3H1V90ZM69 90H68V3H69V90ZM3 2H2V3H1V1H3V2ZM68 3H67V2H66V1H68V3ZM66 1H3V0H66V1Z" fill="#C0C8D6"/>
<path d="M10 7H11V8H12V11H11V13H10V14H7.5V13H8V12H9V11H6V10H5V7H6V6H10V7ZM8 8H7V9H8V10H10V8H9V7H8V8Z" fill="#F03464"/>
<path d="M22 13H23V14H24V13H25V12H28V13H29V17H28V18H27V19H26V20H25V21H24V21.5H23V21H22V20H21V19H20V18H19V17H18V13H19V12H22V13Z" fill="#F03464"/>
<path d="M22 35H23V36H24V35H25V34H28V35H29V39H28V40H27V41H26V42H25V43H24V43.5H23V43H22V42H21V41H20V40H19V39H18V35H19V34H22V35Z" fill="#F03464"/>
<path d="M33 24H34V25H35V24H36V23H39V24H40V28H39V29H38V30H37V31H36V32H35V32.5H34V32H33V31H32V30H31V29H30V28H29V24H30V23H33V24Z" fill="#F03464"/>
<path d="M25 58.5H24V57.5H23V58.5H22V59.5H19V58.5H18V54.5H19V53.5H20V52.5H21V51.5H22V50.5H23V50H24V50.5H25V51.5H26V52.5H27V53.5H28V54.5H29V58.5H28V59.5H25V58.5Z" fill="#F03464"/>
<path d="M47 58.5H46V57.5H45V58.5H44V59.5H41V58.5H40V54.5H41V53.5H42V52.5H43V51.5H44V50.5H45V50H46V50.5H47V51.5H48V52.5H49V53.5H50V54.5H51V58.5H50V59.5H47V58.5Z" fill="#F03464"/>
<path d="M44 35H45V36H46V35H47V34H50V35H51V39H50V40H49V41H48V42H47V43H46V43.5H45V43H44V42H43V41H42V40H41V39H40V35H41V34H44V35Z" fill="#F03464"/>
<path d="M44 13H45V14H46V13H47V12H50V13H51V17H50V18H49V19H48V20H47V21H46V21.5H45V21H44V20H43V19H42V18H41V17H40V13H41V12H44V13Z" fill="#F03464"/>
<path d="M25 80.5H24V79.5H23V80.5H22V81.5H19V80.5H18V76.5H19V75.5H20V74.5H21V73.5H22V72.5H23V72H24V72.5H25V73.5H26V74.5H27V75.5H28V76.5H29V80.5H28V81.5H25V80.5Z" fill="#F03464"/>
<path d="M47 80.5H46V79.5H45V80.5H44V81.5H41V80.5H40V76.5H41V75.5H42V74.5H43V73.5H44V72.5H45V72H46V72.5H47V73.5H48V74.5H49V75.5H50V76.5H51V80.5H50V81.5H47V80.5Z" fill="#F03464"/>
<path d="M59 86H58V85H57V82H58V80H59V79H61.5V80H61V81H60V82H63V83H64V86H63V87H59V86ZM61 85H62V84H61V83H59V85H60V86H61V85Z" fill="#F03464"/>
<path d="M8 17H9V16H11V17H12V19H11V21H10V23H9V24H8V23H7V21H6V19H5V17H6V16H8V17Z" fill="#F03464"/>
<path d="M61 76H60V77H58V76H57V74H58V72H59V70H60V69H61V70H62V72H63V74H64V76H63V77H61V76Z" fill="#F03464"/>
</svg>
