<svg width="69" height="93" viewBox="0 0 69 93" fill="none" xmlns="http://www.w3.org/2000/svg">
<path d="M1.5 3.5H2.5V2.5H3.5V1.5H65.5V2.5H66.5V3.5H67.5V89.5H66.5V90.5H65.5V91.5H3.5V90.5H2.5V89.5H1.5V3.5Z" fill="white" stroke="white"/>
<path d="M66 93H3V92H66V93ZM2 91H3V92H1V90H2V91ZM68 92H66V91H67V90H68V92ZM1 90H0V3H1V90ZM69 90H68V3H69V90ZM3 2H2V3H1V1H3V2ZM68 3H67V2H66V1H68V3ZM66 1H3V0H66V1Z" fill="#C0C8D6"/>
<path d="M10 7H11V8H12V11H11V13H10V14H7.5V13H8V12H9V11H6V10H5V7H6V6H10V7ZM8 8H7V9H8V10H10V8H9V7H8V8Z" fill="#235955"/>
<path d="M25 13H26V16H25V17H26V16H28V17H29V20H28V21H25V20H24V22H26.5V23H20.5V22H23V20H22V21H19V20H18V17H19V16H21V17H22V16H21V13H22V12H25V13Z" fill="#235955"/>
<path d="M25 35H26V38H25V39H26V38H28V39H29V42H28V43H25V42H24V44H26.5V45H20.5V44H23V42H22V43H19V42H18V39H19V38H21V39H22V38H21V35H22V34H25V35Z" fill="#235955"/>
<path d="M36 24H37V27H36V28H37V27H39V28H40V31H39V32H36V31H35V33H37.5V34H31.5V33H34V31H33V32H30V31H29V28H30V27H32V28H33V27H32V24H33V23H36V24Z" fill="#235955"/>
<path d="M22 58H21V55H22V54H21V55H19V54H18V51H19V50H22V51H23V49H20.5V48H26.5V49H24V51H25V50H28V51H29V54H28V55H26V54H25V55H26V58H25V59H22V58Z" fill="#235955"/>
<path d="M44 58H43V55H44V54H43V55H41V54H40V51H41V50H44V51H45V49H42.5V48H48.5V49H46V51H47V50H50V51H51V54H50V55H48V54H47V55H48V58H47V59H44V58Z" fill="#235955"/>
<path d="M47 35H48V38H47V39H48V38H50V39H51V42H50V43H47V42H46V44H48.5V45H42.5V44H45V42H44V43H41V42H40V39H41V38H43V39H44V38H43V35H44V34H47V35Z" fill="#235955"/>
<path d="M47 13H48V16H47V17H48V16H50V17H51V20H50V21H47V20H46V22H48.5V23H42.5V22H45V20H44V21H41V20H40V17H41V16H43V17H44V16H43V13H44V12H47V13Z" fill="#235955"/>
<path d="M22 80H21V77H22V76H21V77H19V76H18V73H19V72H22V73H23V71H20.5V70H26.5V71H24V73H25V72H28V73H29V76H28V77H26V76H25V77H26V80H25V81H22V80Z" fill="#235955"/>
<path d="M44 80H43V77H44V76H43V77H41V76H40V73H41V72H44V73H45V71H42.5V70H48.5V71H46V73H47V72H50V73H51V76H50V77H48V76H47V77H48V80H47V81H44V80Z" fill="#235955"/>
<path d="M59 86H58V85H57V82H58V80H59V79H61.5V80H61V81H60V82H63V83H64V86H63V87H59V86ZM61 85H62V84H61V83H59V85H60V86H61V85Z" fill="#235955"/>
<path d="M10 19H9V20H10V19H12V22H9V23H10.5V24H6.5V23H8V22H5V19H7V20H8V19H7V16H10V19Z" fill="#235955"/>
<path d="M59 74H60V73H59V74H57V71H60V70H58.5V69H62.5V70H61V71H64V74H62V73H61V74H62V77H59V74Z" fill="#235955"/>
</svg>
